<?xml version="1.0" encoding="UTF-8"?>
<svg xmlns="http://www.w3.org/2000/svg" viewBox="0 0 500 500">
  <defs>
    <style>
      .cls-1 {
        fill: #79b058;
        opacity: .1;
      }

      .cls-1, .cls-2, .cls-3, .cls-4 {
        stroke-width: 0px;
      }

      .cls-5 {
        fill: #828282;
      }

      .cls-5, .cls-6, .cls-7, .cls-8, .cls-9, .cls-10 {
        stroke: #263238;
      }

      .cls-5, .cls-6, .cls-7, .cls-8, .cls-9, .cls-10, .cls-11 {
        stroke-linecap: round;
        stroke-linejoin: round;
      }

      .cls-6, .cls-2 {
        fill: #92e3a9;
      }

      .cls-7, .cls-4 {
        fill: #fff;
      }

      .cls-3, .cls-10 {
        fill: #263238;
      }

      .cls-4 {
        opacity: .7;
      }

      .cls-8, .cls-9, .cls-11 {
        fill: none;
      }

      .cls-9 {
        stroke-width: .25px;
      }

      .cls-11 {
        stroke: #8c8c8c;
      }
    </style>
  </defs>
  <g id="Speech_Bubble" data-name="Speech Bubble">
    <g>
      <path class="cls-10" d="M317.52,60.27h-71.79c-3.59,0-6.49,2.91-6.49,6.49v36.81c0,3.59,2.91,6.49,6.49,6.49h12.67l-9.07,21.53,23.28-21.53h44.92c3.59,0,6.49-2.91,6.49-6.49v-36.81c0-3.59-2.91-6.49-6.49-6.49Z"/>
      <path class="cls-7" d="M314.51,58.12h-71.79c-3.59,0-6.49,2.91-6.49,6.49v36.81c0,3.59,2.91,6.49,6.49,6.49h12.67l-9.07,21.53,23.28-21.53h44.92c3.59,0,6.49-2.91,6.49-6.49v-36.81c0-3.59-2.91-6.49-6.49-6.49Z"/>
      <g>
        <circle class="cls-3" cx="262.39" cy="83.01" r="3.36"/>
        <circle class="cls-3" cx="278.61" cy="83.01" r="3.36"/>
        <circle class="cls-3" cx="294.83" cy="83.01" r="3.36"/>
      </g>
    </g>
    <rect class="cls-1" width="500" height="500"/>
  </g>
  <g id="Background_Simple" data-name="Background Simple">
    <g>
      <path class="cls-2" d="M452.28,117.76c-1.66-2.76-3.38-5.47-5.19-8.12-24-35.26-63.95-59.4-102.77-70.33-17.01-4.8-34.47-7.31-51.9-7.95-114.34-4.15-156.35,90.12-193.19,114.43C62.39,170.1,5.85,211.62,12.95,298.84c5.38,66.32,43.11,129.73,112.01,158.58,7.59,3.19,15.56,5.96,23.91,8.25,15.53,4.27,32.36,6.96,50.5,7.76,52.09,2.32,94.39-10.24,135.76-41.86,9.62-7.35,19.18-15.64,31.66-16.55,9.07-.66,17.67,2.6,8.19,11.37-11.14,10.3,1.71,30.57,30.01,16.49,47.25-23.52,66.69-74.26,75.85-125.85,11.24-63.33,5.79-142.09-28.56-199.27Z"/>
      <path class="cls-4" d="M452.28,117.76c-1.66-2.76-3.38-5.47-5.19-8.12-24-35.26-63.95-59.4-102.77-70.33-17.01-4.8-34.47-7.31-51.9-7.95-114.34-4.15-156.35,90.12-193.19,114.43C62.39,170.1,5.85,211.62,12.95,298.84c5.38,66.32,43.11,129.73,112.01,158.58,7.59,3.19,15.56,5.96,23.91,8.25,15.53,4.27,32.36,6.96,50.5,7.76,52.09,2.32,94.39-10.24,135.76-41.86,9.62-7.35,19.18-15.64,31.66-16.55,9.07-.66,17.67,2.6,8.19,11.37-11.14,10.3,1.71,30.57,30.01,16.49,47.25-23.52,66.69-74.26,75.85-125.85,11.24-63.33,5.79-142.09-28.56-199.27Z"/>
    </g>
  </g>
  <g id="Floor">
    <g>
      <line class="cls-8" x1="39.12" y1="399.83" x2="475.76" y2="399.83"/>
      <line class="cls-8" x1="22.92" y1="399.83" x2="32.2" y2="399.83"/>
    </g>
  </g>
  <g id="Plant">
    <g>
      <path class="cls-6" d="M399.05,277.78s-2.51,6.9-7.84,7.84c-5.33.94-14.75-9.41-8.78-14.75,5.96-5.33,14.12,3.14,16.63,6.9Z"/>
      <path class="cls-6" d="M407.21,243.9s-7.84,19.14-4.71,28.55c3.14,9.41,22.59,16.31,28.24,4.08,5.65-12.24-6.9-29.49-11.61-33.26-4.71-3.76-10.35-2.51-11.92.63Z"/>
      <path class="cls-6" d="M453.02,252.06s-13.49,12.24-15.06,24.47c-1.57,12.24,7.53,16.63,16.94,15.06,9.41-1.57,14.12-25.41,11.29-36.39-2.82-10.98-13.18-3.14-13.18-3.14Z"/>
      <path class="cls-6" d="M455.53,319.82s-15.06.63-15.69,7.84c-.63,7.22,6.59,8.78,13.8,2.51,7.22-6.27,8.16-10.04,1.88-10.35Z"/>
      <path class="cls-8" d="M440.09,329.39s11.87-5.43,17.21-6.37"/>
      <path class="cls-6" d="M418.19,334.88s-1.57,7.53-7.22,10.35c-5.65,2.82-15.69-3.14-10.35-12.24,5.33-9.1,14.75-1.88,17.57,1.88Z"/>
      <path class="cls-6" d="M405.02,311.35s-2.82-6.27-13.8-2.2c-10.98,4.08-15.37,10.35-8.47,12.55,6.9,2.2,22.28-10.35,22.28-10.35Z"/>
      <path class="cls-8" d="M402.91,311.07s-11.63,1.26-17.92,6.6"/>
      <path class="cls-6" d="M436.39,236.06s1.88,4.39,5.65,3.45c3.76-.94,4.71-6.59,10.67-5.02,5.96,1.57,10.98,8.47,10.98,5.33s-7.53-11.29-16-11.29-10.98,3.45-11.29,7.53Z"/>
      <path class="cls-8" d="M428.84,361.73s1.41-26.25,0-42.66c-1.41-16.41-7.97-35.63-7.97-35.63l-7.9-35.26"/>
      <path class="cls-8" d="M432.12,361.73s.47-21.56,2.34-35.63c1.88-14.06,9.38-36.1,9.38-36.1l14.09-30.19"/>
      <path class="cls-8" d="M440.09,329.39s-3.28.94-5.16,32.82"/>
      <path class="cls-8" d="M424.15,361.26s.94-16.88-.94-22.97c-1.88-6.09-5.02-3.41-5.02-3.41,0,0-8.68,1.02-11.82,6.05"/>
      <path class="cls-8" d="M426.3,331.86c2.45,13.74.19,28.93.19,28.93"/>
      <path class="cls-8" d="M405.02,311.35s13.51-2.59,19.13,12.41c.55,1.47,1.02,3.01,1.41,4.59"/>
      <path class="cls-6" d="M461.4,296.82s2.82-6.27,13.8-2.2c10.98,4.08,15.37,10.35,8.47,12.55-6.9,2.2-22.28-10.35-22.28-10.35Z"/>
      <path class="cls-8" d="M463.9,297.23s11.32-.63,16.66,5.97"/>
      <path class="cls-8" d="M449.39,299.57c-2.72,1.86-5.32,4.86-7.13,9.66-5.63,15-4.98,52.04-4.98,52.04"/>
      <path class="cls-8" d="M461.4,296.82s-4.48-.86-9.35,1.27"/>
      <path class="cls-8" d="M413.85,287.35c2.93,3.44,5.77,8.09,7.96,14.37,7.5,21.56,10.31,49.22,8.91,59.54"/>
      <path class="cls-8" d="M412.22,285.56c-6.62-6.76-13.16-7.78-13.16-7.78,0,0-9.66-2.56-13.43.9"/>
      <path class="cls-8" d="M432.9,307.53c-.46,27.22-.78,54.2-.78,54.2"/>
      <path class="cls-8" d="M432.96,304.15c.31-18,.67-35.61,1.04-45.08.94-24.38,2.39-23.01,2.39-23.01,0,0,1.74-5.47,11.48-4.84"/>
      <path class="cls-10" d="M447.14,409.55h-30.5c-2.09,0-3.84-1.59-4.04-3.67l-4.38-45.08h47.35l-4.38,45.08c-.2,2.08-1.95,3.67-4.04,3.67Z"/>
      <g>
        <polygon class="cls-7" points="409.62 375.33 410.12 380.48 453.65 380.48 454.15 375.33 409.62 375.33"/>
        <polygon class="cls-7" points="452.55 391.74 452.83 388.92 410.94 388.92 411.22 391.74 452.55 391.74"/>
      </g>
    </g>
  </g>
  <g id="Graphics">
    <g>
      <g>
        <line class="cls-8" x1="56.7" y1="185.67" x2="56.7" y2="194.54"/>
        <line class="cls-8" x1="61.13" y1="190.1" x2="52.26" y2="190.1"/>
      </g>
      <g>
        <line class="cls-8" x1="433.89" y1="208.52" x2="433.89" y2="217.39"/>
        <line class="cls-8" x1="438.32" y1="212.95" x2="429.45" y2="212.95"/>
      </g>
      <g>
        <line class="cls-8" x1="386.18" y1="106.17" x2="386.18" y2="115.04"/>
        <line class="cls-8" x1="390.61" y1="110.61" x2="381.74" y2="110.61"/>
      </g>
      <g>
        <line class="cls-8" x1="206.88" y1="54.61" x2="206.88" y2="63.48"/>
        <line class="cls-8" x1="211.31" y1="59.05" x2="202.44" y2="59.05"/>
      </g>
      <g>
        <line class="cls-8" x1="151.47" y1="375.1" x2="151.47" y2="383.97"/>
        <line class="cls-8" x1="155.91" y1="379.53" x2="147.04" y2="379.53"/>
      </g>
      <g>
        <line class="cls-8" x1="41.43" y1="310.86" x2="41.43" y2="319.73"/>
        <line class="cls-8" x1="45.87" y1="315.3" x2="37" y2="315.3"/>
      </g>
      <circle class="cls-8" cx="348.06" cy="77.7" r="7.33" transform="translate(192.71 398.71) rotate(-76.76)"/>
      <circle class="cls-8" cx="328.87" cy="374.73" r="7.33" transform="translate(-111.22 609.03) rotate(-76.76)"/>
      <circle class="cls-8" cx="38.73" cy="247.03" r="7.33" transform="translate(-91.59 33.63) rotate(-22.5)"/>
      <path class="cls-8" d="M388.73,152.7c0,.92-.75,1.67-1.67,1.67s-1.67-.75-1.67-1.67.75-1.67,1.67-1.67,1.67.75,1.67,1.67Z"/>
      <path class="cls-8" d="M126.21,77.83c0,.92-.75,1.67-1.67,1.67s-1.67-.75-1.67-1.67.75-1.67,1.67-1.67,1.67.75,1.67,1.67Z"/>
      <path class="cls-8" d="M262.28,370.89c0,.92-.75,1.67-1.67,1.67s-1.67-.75-1.67-1.67.75-1.67,1.67-1.67,1.67.75,1.67,1.67Z"/>
    </g>
  </g>
  <g id="Device">
    <g>
      <g>
        <g>
          <path class="cls-7" d="M248.2,375.39l-3.33-26.78h-53.9l-3.33,26.78c-.05.53-.11,1.05-.18,1.57-1.28,9.29-7.24,17.27-15.5,21.69l-14.44,7.72h120.81l-14.44-7.72c-8.27-4.42-14.22-12.41-15.5-21.69-.07-.52-.13-1.05-.18-1.57Z"/>
          <polygon class="cls-10" points="246.38 365.61 244.87 348.61 231.86 348.61 203.98 348.61 190.97 348.61 189.47 365.61 246.38 365.61"/>
          <rect class="cls-7" x="157.52" y="406.38" width="120.64" height="3.17"/>
          <g>
            <line class="cls-8" x1="192.25" y1="388.08" x2="236.21" y2="388.08"/>
            <line class="cls-8" x1="247.54" y1="388.08" x2="242.1" y2="388.08"/>
          </g>
        </g>
        <path class="cls-7" d="M80.52,119.46h274.8c4.39,0,7.95,3.56,7.95,7.95v216.43c0,5.63-4.57,10.2-10.2,10.2H82.77c-5.63,0-10.2-4.57-10.2-10.2V127.41c0-4.39,3.56-7.95,7.95-7.95Z"/>
        <path class="cls-10" d="M363.27,315.16v-187.14c0-4.73-3.83-8.56-8.56-8.56H81.13c-4.73,0-8.56,3.83-8.56,8.56v187.14h290.7Z"/>
        <rect class="cls-6" x="85.65" y="128.68" width="264.53" height="186.48"/>
      </g>
      <g>
        <path class="cls-10" d="M119.38,141.16h169.2c3.54,0,6.41,2.87,6.41,6.41v10.72H112.97v-10.72c0-3.54,2.87-6.41,6.41-6.41Z"/>
        <g>
          <path class="cls-7" d="M261.35,149.73c0,1.46-1.18,2.64-2.64,2.64s-2.64-1.18-2.64-2.64,1.18-2.64,2.64-2.64,2.64,1.18,2.64,2.64Z"/>
          <path class="cls-7" d="M271.9,149.73c0,1.46-1.18,2.64-2.64,2.64s-2.64-1.18-2.64-2.64,1.18-2.64,2.64-2.64,2.64,1.18,2.64,2.64Z"/>
          <path class="cls-7" d="M282.46,149.73c0,1.46-1.18,2.64-2.64,2.64s-2.64-1.18-2.64-2.64,1.18-2.64,2.64-2.64,2.64,1.18,2.64,2.64Z"/>
        </g>
        <g>
          <path class="cls-8" d="M119.37,141.16h169.2c3.54,0,6.41,2.87,6.41,6.41v141.57c0,3.5-2.84,6.35-6.35,6.35H119.31c-3.5,0-6.35-2.84-6.35-6.35v-141.57c0-3.54,2.87-6.41,6.41-6.41Z"/>
          <line class="cls-9" x1="121.65" y1="154.4" x2="121.65" y2="296.02"/>
          <line class="cls-9" x1="132.67" y1="154.4" x2="132.67" y2="296.02"/>
          <line class="cls-9" x1="143.69" y1="154.4" x2="143.69" y2="296.02"/>
          <line class="cls-9" x1="154.71" y1="154.4" x2="154.71" y2="296.02"/>
          <line class="cls-9" x1="165.72" y1="154.4" x2="165.72" y2="296.02"/>
          <line class="cls-9" x1="176.74" y1="154.4" x2="176.74" y2="296.02"/>
          <line class="cls-9" x1="187.76" y1="154.4" x2="187.76" y2="296.02"/>
          <line class="cls-9" x1="198.78" y1="154.4" x2="198.78" y2="296.02"/>
          <line class="cls-9" x1="209.8" y1="154.4" x2="209.8" y2="296.02"/>
          <line class="cls-9" x1="220.82" y1="154.4" x2="220.82" y2="296.02"/>
          <line class="cls-9" x1="231.83" y1="154.4" x2="231.83" y2="296.02"/>
          <line class="cls-9" x1="242.85" y1="154.4" x2="242.85" y2="296.02"/>
          <line class="cls-9" x1="253.87" y1="154.4" x2="253.87" y2="296.02"/>
          <line class="cls-9" x1="264.89" y1="154.4" x2="264.89" y2="296.02"/>
          <line class="cls-9" x1="275.91" y1="154.4" x2="275.91" y2="296.02"/>
          <line class="cls-9" x1="286.93" y1="154.4" x2="286.93" y2="296.02"/>
          <line class="cls-9" x1="113.22" y1="168.68" x2="295.35" y2="168.68"/>
          <line class="cls-9" x1="113.22" y1="182.04" x2="295.35" y2="182.04"/>
          <line class="cls-9" x1="113.22" y1="195.4" x2="295.35" y2="195.4"/>
          <line class="cls-9" x1="113.22" y1="208.75" x2="295.35" y2="208.75"/>
          <line class="cls-9" x1="113.22" y1="222.11" x2="295.35" y2="222.11"/>
          <line class="cls-9" x1="113.22" y1="235.46" x2="295.35" y2="235.46"/>
          <line class="cls-9" x1="113.22" y1="248.82" x2="295.35" y2="248.82"/>
          <line class="cls-9" x1="113.22" y1="262.18" x2="295.35" y2="262.18"/>
          <line class="cls-9" x1="113.22" y1="275.53" x2="295.35" y2="275.53"/>
          <line class="cls-9" x1="113.22" y1="288.89" x2="295.35" y2="288.89"/>
        </g>
      </g>
    </g>
  </g>
  <g id="Character_2" data-name="Character 2">
    <g>
      <g>
        <path class="cls-7" d="M372.88,208.5s-4.63,3.97-4.63,4.79-1.32,9.42-1.32,9.42l6.28,2.65,2.65-4.46s1.32-1.82,2.31-3.47c.99-1.65,3.31-3.47,3.31-3.47l-2.48-.5-2.98,3.14-.33-4.46-2.81-3.64Z"/>
        <path class="cls-7" d="M366.93,222.72s-9.09,10.58-11.9,14.22c-2.81,3.64-10.75,11.74-13.56,16.86-2.81,5.13-2.15,11.41.33,13.39s12.23-2.31,16.37-10.75c4.13-8.43,15.04-31.08,15.04-31.08l-6.28-2.65Z"/>
      </g>
      <g>
        <g>
          <path class="cls-7" d="M377.84,189.16s-1.32,4.79-2.31,6.94c-.99,2.15-5.79,3.97-5.29,4.63.5.66,2.98,2.81,2.98,2.81,0,0,.17,10.91,1.65,11.24,1.49.33,6.61-.83,6.61-.83l-.99,7.61,12.73-1.82,1.16-10.75s5.62-4.3,5.62-8.43-6.61-12.4-12.9-14.05c-6.28-1.65-7.44-.5-9.26,2.65Z"/>
          <path class="cls-3" d="M377.94,196.76c-.14.83-.53,1.45-.88,1.39s-.52-.77-.38-1.6c.14-.83.53-1.45.88-1.39.35.06.52.77.38,1.6Z"/>
          <path class="cls-8" d="M377.78,193.7c0-.48,1.12-1.12,1.44.48"/>
          <path class="cls-8" d="M373.96,205.35s.96.16,2.39-.64"/>
        </g>
        <path class="cls-10" d="M384.79,177.91s2.48-4.46-2.15-3.47c-4.63.99-10.91,10.08-8.6,14.22,2.31,4.13,5.46,2.48,5.46,2.48,0,0,1.49,2.15,2.65,3.31,1.16,1.16,2.65,2.31,2.65,2.31,0,0,1.16,9.92,3.14,12.56,1.98,2.65,4.3,3.47,6.12,2.48,1.82-.99,4.96-3.31,4.96-3.31,0,0,7.94-5.95,8.43-11.24.5-5.29.17-8.6-2.81-12.23-2.98-3.64-7.44-5.29-7.44-5.29,0,0,1.32-4.46-2.65-4.79-3.97-.33-9.75,2.98-9.75,2.98Z"/>
        <path class="cls-7" d="M382.47,198.41s3.31-4.3,4.79-2.81.17,6.94-.99,8.76-3.97.33-4.13-.5"/>
      </g>
      <polygon class="cls-7" points="373.54 226.52 378.67 220.57 396.64 218.66 398.01 224.37 373.54 226.52"/>
      <path class="cls-7" d="M406.23,292.07l-2.28-3.21-.12,15.49s4.68-4.45,4.9-6.9c.22-2.45-2.5-5.38-2.5-5.38Z"/>
      <path class="cls-7" d="M412.56,229s18.85,38.36,20.17,41c1.32,2.65-1.49,3.64-1.49,3.64l-22.51,23.81-2.5-5.38,9.63-23.56-8.76-14.05s4.79-23.97,5.46-25.46Z"/>
      <polygon class="cls-10" points="412.79 241.31 415.87 268.51 410.97 260.18 412.79 241.31"/>
      <path class="cls-10" d="M361.52,290.73s0,.42-.02,1.19c-.11,8.07-.65,55.02.74,71.79,1.52,18.38,4.36,45.75,4.36,45.75,0,0-1.9.57-1.9,1.53s-.57,3.83-.57,3.83c0,0-4.17,2.3-7.02,3.25s-5.12,2.87-3.79,3.83c1.33.96,7.58,1.72,13.84,2.49s11,.96,11.76.19c.76-.77.57-4.98.38-6.51-.19-1.53.19-4.59,0-7.08-.19-2.49-1.14-4.59-1.14-6.13s.95-47.47.95-47.47l2.84-17.23,2.65-10.91s1.52,28.14,2.09,29.48c.57,1.34,10.26,51.66,10.26,51.66l-1.14,1.91.19,2.49s-2.09,2.11-4.74,3.45c-2.65,1.34-5.12,2.11-3.22,3.64,1.9,1.53,9.67,1.91,11.38,2.11,1.71.19,7.77.38,8.53.19s1.9,0,2.09-2.68-.57-5.55-.76-6.32c-.19-.77-.76-3.45-.95-5.93-.19-2.49-.76-4.98-.76-4.98l-2.86-50.32.95-49.39s0-4.59-.57-8.61c-.57-4.02-1.14-7.08-1.14-7.08l-41.71-1.72"/>
      <g>
        <path class="cls-7" d="M343.78,257.77l11.9-13.72s8.43-14.38,9.09-15.71c.66-1.32,8.76-1.82,8.76-1.82l24.47-2.15s14.22,3.47,14.55,4.63c.33,1.16-.64,24.92-1.14,28.22-.5,3.31-6.47,34.27-6.96,36.09-.5,1.82-7.44,2.81-19.01,3.47-11.57.66-21.49-3.47-22.32-4.13-.83-.66-1.65-1.32-1.49-2.48.17-1.16,2.65-29.26,2.65-29.26,0,0-12.56,8.76-15.54,9.42s-8.1-2.31-8.76-6.45c-.66-4.13,1.82-6.28,1.82-6.28"/>
        <g>
          <path class="cls-8" d="M398.99,242.75s-10.03,19.64-14.63,25.5"/>
          <line class="cls-8" x1="394.81" y1="255.29" x2="389.38" y2="264.9"/>
        </g>
      </g>
      <polyline class="cls-8" points="375.53 250 364.29 260.91 374.2 256.61"/>
    </g>
  </g>
  <g id="Character_1" data-name="Character 1">
    <g>
      <g>
        <polygon class="cls-7" points="206.28 315.09 232.36 315.09 233.25 266.09 222.7 201.45 192.51 201.85 206.81 272.17 206.28 315.09"/>
        <path class="cls-10" d="M225.44,269l6.84,46.09h36.29c-1.31-5.27-12.36-49.83-12.36-52.56,0-2.9-7.8-51.29-9.81-54.19-2.01-2.9-28.99-14.05-28.99-14.05l2.68,15.61,5.35,59.09Z"/>
        <path class="cls-11" d="M242.83,229.98c2.25,10.28,4.69,20.7,5.81,31.17,1.21,11.26-.68,23.28-1.31,34.56-.25,4.49-.07,8.78.22,13.28"/>
      </g>
      <ellipse class="cls-5" cx="182.83" cy="169.01" rx="13.72" ry="13.36"/>
      <path class="cls-10" d="M155.13,315.09h51.22c.56-5.98,3.58-38.11,4.59-44.98,1.11-7.58-11.15-56.64-11.15-56.64l-9.37-21.41-37.91,15.16,14.49,77.82-11.88,30.04Z"/>
      <path class="cls-7" d="M192.03,185.93s-1.6,0-3.21,1.96c-.97,1.19-2.91,9.79-3.21,11.58-.53,3.21-1.25,26.72-1.25,26.72,0,0,17.46-8.91,18.17-8.91s8.55,3.38,8.55,3.38c0,0,2.49-.36,3.21-.89.71-.53,4.99-6.41,4.99-6.41l15.14,9.62s-11.4-26.55-14.07-30.82c-2.67-4.28-4.63-5.52-6.41-6.06-1.78-.53-21.91-.18-21.91-.18Z"/>
      <path class="cls-7" d="M191.5,162.41s1.96,15.14,1.25,20.13c-.71,4.99-2.32,2.49-.71,8.2,1.6,5.7,13.72,24.41,16.21,27.61,2.49,3.21,4.99,2.14,5.88-1.25s1.6-24.05,1.6-24.05l2.49-9.09-26.72-21.56Z"/>
      <polygon class="cls-10" points="201.38 180.21 214.75 196.29 215.73 193.06 218.22 183.97 201.38 180.21"/>
      <g>
        <path class="cls-7" d="M233.43,146.69s-.34,14.43-.18,17.5c.16,3.07-.16,8.57-2.43,13.27-2.26,4.69-9.22,9.22-12.94,9.22s-11.16-2.75-16.5-6.47c-4.63-3.23-9.22-9.22-10.52-11-1.29-1.78-3.24-9.22-3.24-9.22l-1.13-6.15-1.13-5.02s10.19.32,15.69-5.34c5.5-5.66,17.15-16.83,17.15-16.83l13.59,13.75,1.64,6.28Z"/>
        <path class="cls-8" d="M220.31,152.54s-.16,4.69.97,6.63,4.21,4.37,3.4,5.66c-.81,1.29-5.5,1.46-5.99,1.13"/>
        <path class="cls-8" d="M209.96,169.21s2.75,5.18,9.71,4.37"/>
        <path class="cls-8" d="M215.13,149.63s-4.69-3.24-10.03-.65"/>
        <path class="cls-8" d="M222.41,148.66s4.37-4.04,8.09-.49"/>
        <path class="cls-3" d="M211.25,156.59c0,1.52-.69,2.75-1.54,2.75s-1.54-1.23-1.54-2.75.69-2.75,1.54-2.75,1.54,1.23,1.54,2.75Z"/>
        <path class="cls-3" d="M228.24,156.1c0,1.52-.69,2.75-1.54,2.75s-1.54-1.23-1.54-2.75.69-2.75,1.54-2.75,1.54,1.23,1.54,2.75Z"/>
      </g>
      <path class="cls-5" d="M217.71,130.83s-2.34,7.28-8.71,13.26-15.99,7.8-15.99,7.8c0,0,.52,2.47-.13,3.38-.65.91-2.08,1.82-2.08,1.82,0,0-3.77.65-7.28-3.12-3.51-3.77-3.12-21.06,3.51-29.63,6.63-8.58,27.03-9.88,32.88-7.41,5.85,2.47,3.64,3.64,3.64,3.64,0,0,9.1,4.03,14.69,10.53,5.59,6.5-4.81,15.6-4.81,15.6l-15.73-15.86Z"/>
      <g>
        <path class="cls-10" d="M184.88,153.35s-1.78-23.78,12.13-35.27l6.15-1.62s-14.08,13.27-15.21,37.37l-3.07-.49Z"/>
        <path class="cls-10" d="M193.5,158.45c2.13,4.13,1.12,8.89-2.26,10.63-3.38,1.74-7.84-.2-9.97-4.33-2.13-4.13-1.12-8.89,2.26-10.63,3.38-1.74,7.84.2,9.97,4.33Z"/>
        <path class="cls-8" d="M190.06,164.68s9.55,12.46,21.19,16.83"/>
        <path class="cls-10" d="M214.11,182.32c-.46,1.1-1.98,1.52-3.39.93-1.41-.59-2.18-1.97-1.71-3.07.46-1.1,1.98-1.52,3.39-.93,1.41.59,2.18,1.97,1.71,3.07Z"/>
      </g>
      <g>
        <path class="cls-7" d="M204.12,264.36s5.98-4.25,6.46-4.72c.47-.47,4.41-5.83,5.51-7.4,1.1-1.57,3.15-2.99,4.57-4.25,1.42-1.26,3.78-4.09,4.88-5.98,1.1-1.89,2.52-3.62,2.99-1.57.47,2.05-.79,4.41-1.26,5.83s-2.05,3.94-2.05,3.94c0,0,5.83-3.62,9.29-4.25,3.46-.63,7.87-.63,8.03.47.16,1.1-.94,1.42-2.52,2.05-1.57.63-5.83,2.2-7.4,2.83-1.57.63-5.83,3.78-5.83,3.78,0,0,8.03-1.89,9.76-2.36,1.73-.47,5.98-.63,6.93-.63s1.73,1.73.47,2.68c-1.26.94-3.78,2.2-3.78,2.2,0,0-.94,1.57-2.36,3.15-1.42,1.57-2.99,3.62-4.57,5.98-1.57,2.36-3.94,4.09-6.46,5.35-2.52,1.26-13.23,2.36-13.23,2.36l-7.24,3.62-2.2-13.07Z"/>
        <path class="cls-8" d="M240.18,256.95s-9.76,2.36-11.97,3.94"/>
        <path class="cls-8" d="M234.98,263.41s-5.51,2.68-6.14,2.83"/>
      </g>
      <g>
        <path class="cls-10" d="M166.57,202.33s-16.28,4.01-16.72,6.47c-.45,2.45-12.04,77.6-12.71,80.94-.67,3.34-1.56,8.92.67,9.37,2.23.45,68.9-20.29,68.9-20.29l-3.22-16.03-34.91,3.99,5.13-31.44"/>
        <line class="cls-11" x1="166.51" y1="267.03" x2="150.73" y2="267.86"/>
        <polyline class="cls-11" points="197.21 264.39 166.51 267.03 173.17 241.37"/>
      </g>
    </g>
  </g>
</svg>